<?xml version="1.0" encoding="UTF-8"?><svg id="a" xmlns="http://www.w3.org/2000/svg" viewBox="0 0 208.07 330.51"><defs><style>.b{fill:#fff;}.c{fill:#ef487c;}</style></defs><path class="c" d="M64.87,321.11c-25.95-32.14-55.47-80.41-55.47-133.67S36.49,90.69,59.21,60.98c17.8-23.29,35.82-40.49,44.83-48.56,9.01,8.07,27.02,25.27,44.83,48.56,22.72,29.72,49.81,75.78,49.81,126.47,0,53.25-29.52,101.53-55.47,133.67H64.87Z"/><path class="b" d="M104.04,25.21c9.56,9.06,23.67,23.53,37.63,41.83,14.04,18.41,25.17,37.04,33.1,55.39,9.62,22.26,14.5,44.14,14.5,65.02,0,23.09-5.96,47.34-17.71,72.08-8.27,17.4-19.31,34.92-32.89,52.19H69.4c-13.58-17.26-24.62-34.79-32.89-52.19-11.75-24.73-17.71-48.99-17.71-72.08,0-20.88,4.88-42.75,14.5-65.02,7.93-18.35,19.07-36.99,33.1-55.39,13.96-18.3,28.07-32.77,37.63-41.83M104.04,0S0,83.93,0,187.45C0,244.79,31.93,296.13,60.41,330.51h87.25c28.48-34.39,60.41-85.72,60.41-143.07C208.07,83.93,104.04,0,104.04,0h0Z"/></svg>